<svg width="32" height="33" viewBox="0 0 32 33" fill="none" xmlns="http://www.w3.org/2000/svg">
<path d="M6.66698 15.6882V19.0861C6.66698 21.5678 6.66698 22.8087 6.99327 23.8129C7.65273 25.8425 9.24395 27.4337 11.2735 28.0931C12.2778 28.4194 13.5186 28.4194 16.0003 28.4194C18.482 28.4194 19.7229 28.4194 20.7271 28.0931C22.7567 27.4337 24.3479 25.8425 25.0074 23.8129C25.3337 22.8087 25.3337 21.5678 25.3337 19.0861V15.6926M25.3337 15.6926C24.0573 16.2099 22.4805 16.7718 20.6041 17.442L17.7943 18.4455C16.9063 18.7626 16.4624 18.9212 16.0005 18.9212C15.5385 18.9212 15.0946 18.7626 14.2066 18.4455L11.3968 17.442C5.52923 15.3464 2.59546 14.2986 2.59546 12.4193C2.59546 10.5401 5.52923 9.49231 11.3968 7.39673L14.2066 6.3932C15.0946 6.07607 15.5385 5.91751 16.0005 5.91751C16.4624 5.91751 16.9063 6.07607 17.7943 6.3932L20.6041 7.39673C26.4717 9.49231 29.4055 10.5401 29.4055 12.4193C29.4055 13.6976 28.0485 14.5923 25.3337 15.6926Z" stroke="black" stroke-width="1.5"/>
<path d="M14.001 5.40463L10.977 6.48471C8.1136 7.50734 5.86317 8.31106 4.33627 9.10091C2.8605 9.8643 1.5954 10.8456 1.5954 12.4193V21.7682C1.5954 22.3205 2.11464 22.7526 2.66692 22.7526C3.21921 22.7526 3.66692 22.3049 3.66692 21.7526V15.3643C3.28257 15.131 2.92709 14.8765 2.62302 14.5928C2.00197 14.0132 1.5954 13.3114 1.5954 12.4193C1.5954 11.867 2.11464 11.4193 2.66692 11.4193C2.76493 11.4193 2.8574 11.4334 2.9432 11.4597L2.66701 11.584L2.87586 12.4194H3.59548C3.59548 12.7249 3.79727 13.2071 5.25526 13.9613C6.64734 14.6814 8.7687 15.4415 11.7331 16.5002L14.543 17.5038C15.4964 17.8443 15.7518 17.9212 16.0005 17.9212C16.2491 17.9212 16.5046 17.8443 17.458 17.5038L20.3617 16.4667C22.2036 15.8089 23.7266 15.265 24.958 14.7659C26.3056 14.2197 27.2149 13.7624 27.7787 13.3295C28.32 12.9139 28.4055 12.6319 28.4055 12.4194H30.4054C30.4054 12.4193 30.4054 12.4194 30.4054 12.4194C30.4054 10.8456 29.1403 9.8643 27.6645 9.1009C26.1376 8.31106 23.8872 7.50734 21.0238 6.48471L17.9998 5.40463C17.2401 5.13258 16.6393 4.91745 16.0004 4.91745C15.3614 4.91745 14.7607 5.13258 14.001 5.40463Z" fill="black"/>
<path d="M30.4011 12.5769C30.3601 13.3095 30.0338 13.9145 29.5519 14.421C30.0392 13.9116 30.3608 13.3106 30.4011 12.5769Z" fill="black"/>
</svg>
