<svg width="49" height="52" viewBox="0 0 49 52" fill="none" xmlns="http://www.w3.org/2000/svg">
<path d="M23.6595 2.05026C25.8364 0.782975 28.5263 0.782974 30.7031 2.05026L42.5982 8.97513C44.7518 10.2288 46.0764 12.5328 46.0764 15.0247V28.9753C46.0764 31.4672 44.7518 33.7712 42.5982 35.0249L30.7031 41.9497C28.5263 43.217 25.8364 43.217 23.6595 41.9497L11.7644 35.0249C9.61093 33.7712 8.28624 31.4672 8.28624 28.9753V15.0247C8.28624 12.5328 9.61092 10.2288 11.7644 8.97513L23.6595 2.05026Z" fill="#FDB3A3"/>
<path d="M18.7007 10.0503C20.8775 8.78297 23.5674 8.78297 25.7443 10.0503L37.6394 16.9751C39.7929 18.2288 41.1176 20.5328 41.1176 23.0247V36.9753C41.1176 39.4672 39.7929 41.7712 37.6394 43.0249L25.7443 49.9497C23.5674 51.217 20.8775 51.217 18.7007 49.9497L6.80557 43.0249C4.65206 41.7712 3.32738 39.4672 3.32738 36.9753V23.0247C3.32738 20.5328 4.65206 18.2288 6.80557 16.9751L18.7007 10.0503Z" fill="#FB5A36"/>
</svg>
