<svg width="18" height="18" viewBox="0 0 18 18" fill="none" xmlns="http://www.w3.org/2000/svg">
<path fill-rule="evenodd" clip-rule="evenodd" d="M6.9375 3C8.4908 3 9.75 4.2592 9.75 5.8125C9.75 7.3658 8.4908 8.625 6.9375 8.625C5.3842 8.625 4.125 7.3658 4.125 5.8125C4.125 4.2592 5.3842 3 6.9375 3ZM8.625 5.8125C8.625 4.88052 7.86948 4.125 6.9375 4.125C6.00552 4.125 5.25 4.88052 5.25 5.8125C5.25 6.74448 6.00552 7.5 6.9375 7.5C7.86948 7.5 8.625 6.74448 8.625 5.8125Z" fill="#2D264B"/>
<path fill-rule="evenodd" clip-rule="evenodd" d="M9.1875 9.75C10.7408 9.75 12 11.0092 12 12.5625C12 14.1158 10.7408 15.375 9.1875 15.375H4.6875C3.1342 15.375 1.875 14.1158 1.875 12.5625C1.875 11.0092 3.1342 9.75 4.6875 9.75H9.1875ZM10.875 12.5625C10.875 11.6305 10.1195 10.875 9.1875 10.875H4.6875C3.75552 10.875 3 11.6305 3 12.5625C3 13.4945 3.75552 14.25 4.6875 14.25H9.1875C10.1195 14.25 10.875 13.4945 10.875 12.5625Z" fill="#2D264B"/>
<path d="M10.1234 7.79149C10.2417 7.60145 10.4637 7.5 10.6875 7.5C11.6195 7.5 12.375 6.74448 12.375 5.8125C12.375 4.88052 11.6195 4.125 10.6875 4.125C10.4637 4.125 10.2417 4.02355 10.1234 3.83351C10.1182 3.82511 10.1129 3.81672 10.1076 3.80836C9.91065 3.49748 10.0104 3.0573 10.3762 3.01703C10.4785 3.00578 10.5823 3 10.6875 3C12.2408 3 13.5 4.2592 13.5 5.8125C13.5 7.3658 12.2408 8.625 10.6875 8.625C10.5823 8.625 10.4784 8.61922 10.3762 8.60797C10.0104 8.5677 9.91065 8.12752 10.1076 7.81664C10.1129 7.80828 10.1182 7.79989 10.1234 7.79149Z" fill="#2D264B"/>
<path d="M12.4063 13.7377C12.4914 13.5956 12.6417 13.5 12.8073 13.5H12.9375C13.8695 13.5 14.625 12.7445 14.625 11.8125C14.625 10.8805 13.8695 10.125 12.9375 10.125H12.8073C12.6417 10.125 12.4914 10.0294 12.4063 9.88735C12.1985 9.54062 12.424 9 12.8282 9H12.9375C14.4908 9 15.75 10.2592 15.75 11.8125C15.75 13.3658 14.4908 14.625 12.9375 14.625H12.8282C12.424 14.625 12.1985 14.0844 12.4063 13.7377Z" fill="#2D264B"/>
</svg>
