<svg width="24" height="25" viewBox="0 0 24 25" fill="none" xmlns="http://www.w3.org/2000/svg">
<path d="M17.971 2.55317C18.9784 2.54868 19.6705 2.54672 20.1977 2.6043C20.3691 2.62301 20.5123 2.64713 20.6339 2.67627L10.0054 13.3047C9.71253 13.5976 9.71253 14.0725 10.0054 14.3654C10.2983 14.6583 10.7732 14.6583 11.0661 14.3654L21.6946 3.73693C21.7237 3.85854 21.7478 4.00174 21.7665 4.17308C21.8241 4.70032 21.8221 5.39247 21.8177 6.39983L21.8066 8.88197C21.8047 9.29618 22.139 9.63346 22.5532 9.63531C22.9674 9.63716 23.3047 9.30288 23.3066 8.88867L23.3178 6.36183C23.3221 5.41011 23.3256 4.63227 23.2577 4.01024C23.187 3.36341 23.0314 2.79075 22.6501 2.29796C22.5675 2.19129 22.4785 2.09001 22.3834 1.99467C22.286 1.8969 22.1822 1.80539 22.0729 1.72074C21.5801 1.33937 21.0074 1.1838 20.3606 1.11317C19.7386 1.04524 18.9607 1.04872 18.009 1.05299L15.4822 1.06426C15.0679 1.06611 14.7337 1.40339 14.7355 1.8176C14.7374 2.23181 15.0746 2.56609 15.4888 2.56424L17.971 2.55317Z" fill="#FEFEFE"/>
<path d="M13.009 4.24308C12.4034 4.23582 11.7363 4.23582 11.0032 4.23582H10.9547C9.11821 4.23581 7.67861 4.23581 6.53648 4.35955C5.37094 4.48583 4.42656 4.74814 3.62024 5.33397C3.13209 5.68863 2.70281 6.11791 2.34815 6.60606C1.76232 7.41238 1.50001 8.35676 1.37373 9.5223C1.24999 10.6644 1.24999 12.104 1.25 13.9406V14.0311C1.24999 15.8676 1.24999 17.3072 1.37373 18.4493C1.50001 19.6149 1.76232 20.5593 2.34815 21.3656C2.70281 21.8537 3.13209 22.283 3.62024 22.6377C4.42656 23.2235 5.37094 23.4858 6.53648 23.6121C7.67859 23.7358 9.11817 23.7358 10.9547 23.7358H11.0453C12.8818 23.7358 14.3214 23.7358 15.4635 23.6121C16.6291 23.4858 17.5734 23.2235 18.3798 22.6377C18.8679 22.283 19.2972 21.8537 19.6518 21.3656C20.2377 20.5593 20.5 19.6149 20.6263 18.4493C20.75 17.3072 20.75 15.8677 20.75 14.0312V13.9824C20.75 13.2494 20.75 12.5824 20.7427 11.9768C20.7378 11.5626 20.398 11.2309 19.9838 11.2359C19.5696 11.2408 19.2379 11.5806 19.2428 11.9948C19.25 12.5906 19.25 13.2491 19.25 13.9858C19.25 15.8774 19.249 17.2358 19.135 18.2878C19.0225 19.3257 18.8074 19.9759 18.4383 20.4839C18.1762 20.8447 17.8589 21.162 17.4981 21.4241C16.9901 21.7932 16.3399 22.0084 15.302 22.1208C14.25 22.2348 12.8916 22.2358 11 22.2358C9.10843 22.2358 7.74999 22.2348 6.69804 22.1208C5.66013 22.0084 5.00992 21.7932 4.50191 21.4241C4.14111 21.162 3.82382 20.8447 3.56168 20.4839C3.19259 19.9759 2.97745 19.3257 2.865 18.2878C2.75103 17.2358 2.75 15.8774 2.75 13.9858C2.75 12.0942 2.75103 10.7358 2.865 9.68387C2.97745 8.64595 3.19259 7.99574 3.56168 7.48773C3.82382 7.12693 4.14111 6.80964 4.50191 6.5475C5.00992 6.17841 5.66013 5.96327 6.69804 5.85082C7.74999 5.73685 9.10843 5.73582 11 5.73582C11.7367 5.73582 12.3952 5.73583 12.991 5.74297C13.4052 5.74794 13.745 5.4162 13.7499 5.00202C13.7549 4.58783 13.4232 4.24805 13.009 4.24308Z" fill="#FEFEFE"/>
</svg>
