<svg width="56" height="56" viewBox="0 0 56 56" fill="none" xmlns="http://www.w3.org/2000/svg">
<path d="M33.8986 17.5763C34.5851 16.8959 34.59 15.7879 33.9097 15.1014C33.2293 14.415 32.1213 14.41 31.4348 15.0904L27.2471 19.2409C25.6698 20.8041 24.3807 22.0817 23.4665 23.2201C22.5158 24.4038 21.8277 25.6054 21.6438 27.0476C21.5632 27.68 21.5632 28.32 21.6438 28.9524C21.8277 30.3946 22.5158 31.5962 23.4665 32.7799C24.3807 33.9183 25.6698 35.1959 27.2471 36.7591L31.4348 40.9096C32.1213 41.59 33.2293 41.585 33.9097 40.8986C34.59 40.2121 34.5851 39.1041 33.8986 38.4237L29.785 34.3467C28.1155 32.692 26.9703 31.5533 26.1954 30.5884C25.4427 29.6511 25.1845 29.049 25.1157 28.5098C25.0726 28.1713 25.0726 27.8287 25.1157 27.4902C25.1845 26.951 25.4427 26.3489 26.1954 25.4116C26.9703 24.4468 28.1155 23.308 29.785 21.6533L33.8986 17.5763Z" fill="black"/>
</svg>
