<svg width="42" height="43" viewBox="0 0 42 43" fill="none" xmlns="http://www.w3.org/2000/svg">
<path d="M18.7827 16.1169C18.9201 16.1016 19.2165 16.1279 19.9212 16.4743C20.6168 16.8163 21.5063 17.3621 22.7988 18.1575C24.0907 18.9526 24.9797 19.5013 25.6067 19.9735C26.2339 20.4459 26.4325 20.7237 26.5101 20.9094C26.7465 21.4754 26.7465 22.127 26.5101 22.693C26.4325 22.8787 26.2339 23.1565 25.6067 23.6289C24.9797 24.1011 24.0907 24.6498 22.7988 25.4449C21.5063 26.2403 20.6168 26.7861 19.9212 27.1281C19.2165 27.4745 18.9201 27.5008 18.7827 27.4854C18.2726 27.4283 17.7822 27.1401 17.4501 26.6529C17.338 26.4884 17.2064 26.1521 17.1345 25.3173C17.0636 24.4928 17.0624 23.388 17.0624 21.8012C17.0624 20.2144 17.0636 19.1096 17.1345 18.2851C17.2064 17.4503 17.338 17.114 17.4501 16.9495C17.7822 16.4623 18.2726 16.1741 18.7827 16.1169Z" fill="#333333"/>
<path fill-rule="evenodd" clip-rule="evenodd" d="M20.5009 2.60469C20.8333 2.58819 21.1664 2.58819 21.4988 2.60469C22.7822 2.66841 23.9637 3.04132 25.2809 3.65255C26.5632 4.2476 28.0532 5.10786 29.9382 6.19621L30.0449 6.25782C31.93 7.34614 33.42 8.20642 34.5765 9.01938C35.7644 9.85445 36.6781 10.6912 37.375 11.7708C37.5555 12.0505 37.722 12.3389 37.874 12.6351C38.4605 13.7784 38.7283 14.9881 38.8575 16.4344C38.9833 17.8423 38.9833 19.5628 38.9833 21.7395V21.8628C38.9833 24.0394 38.9833 25.76 38.8575 27.168C38.7283 28.6143 38.4605 29.824 37.874 30.9673C37.722 31.2635 37.5555 31.5519 37.375 31.8316C36.6781 32.9111 35.7644 33.7479 34.5765 34.583C33.42 35.3959 31.9301 36.2562 30.045 37.3445L29.9382 37.4061C28.0532 38.4945 26.5632 39.3548 25.2809 39.9498C23.9637 40.5611 22.7822 40.934 21.4988 40.9977C21.1664 41.0142 20.8333 41.0142 20.5009 40.9977C19.2175 40.934 18.036 40.5611 16.7188 39.9498C15.4365 39.3548 13.9465 38.4945 12.0615 37.4061L11.9546 37.3445C10.0697 36.2562 8.57958 35.3959 7.42319 34.583C6.23527 33.7479 5.32156 32.9111 4.62468 31.8316C4.44417 31.5519 4.27764 31.2635 4.12571 30.9673C3.5392 29.824 3.27138 28.6143 3.14215 27.168C3.01634 25.76 3.01635 24.0395 3.01636 21.8628V21.7396C3.01635 19.5629 3.01634 17.8424 3.14215 16.4344C3.27138 14.9881 3.5392 13.7784 4.12571 12.6351C4.27764 12.3389 4.44417 12.0505 4.62468 11.7708C5.32156 10.6912 6.23527 9.85445 7.42319 9.01938C8.57965 8.20642 10.0697 7.34617 11.9547 6.25785L12.0615 6.19621C13.9465 5.10786 15.4365 4.2476 16.7188 3.65255C18.036 3.04132 19.2175 2.66841 20.5009 2.60469ZM24.1162 15.886C22.8964 15.1353 21.9004 14.5223 21.0792 14.1186C20.2541 13.7129 19.3948 13.4069 18.4905 13.5083C17.1834 13.6547 16.023 14.3825 15.281 15.4711C14.7775 16.2098 14.6013 17.1065 14.5192 18.06C14.4374 19.0107 14.4374 20.2291 14.4374 21.7383V21.8641C14.4374 23.3732 14.4374 24.5917 14.5192 25.5424C14.6013 26.4959 14.7775 27.3926 15.281 28.1313C16.023 29.2199 17.1834 29.9477 18.4905 30.0941C19.3948 30.1954 20.254 29.8895 21.0792 29.4838C21.9004 29.0801 22.8964 28.4671 24.1162 27.7164L24.2317 27.6454C25.4527 26.8939 26.4484 26.2812 27.1859 25.7257C27.9347 25.1618 28.5838 24.539 28.9323 23.7047C29.4391 22.4914 29.4391 21.111 28.9323 19.8977C28.5838 19.0634 27.9347 18.4406 27.1859 17.8766C26.4484 17.3212 25.4528 16.7085 24.2318 15.9571L24.1162 15.886Z" fill="#333333"/>
</svg>
