<svg width="64" height="64" viewBox="0 0 64 64" fill="none" xmlns="http://www.w3.org/2000/svg">
<rect width="64" height="64" rx="32" fill="#FC7B5E"/>
<path d="M40.8105 45.04C38.5705 45.104 36.7465 44.368 35.3385 42.832C33.9945 41.232 33.3225 39.152 33.3225 36.592C33.3225 33.456 34.3785 30.192 36.4905 26.8C38.6025 23.408 41.2905 20.688 44.5545 18.64L47.4345 21.904C44.6185 23.888 42.4745 26.064 41.0025 28.432C39.5305 30.736 38.7305 32.56 38.6025 33.904C39.3705 33.52 40.1065 33.328 40.8105 33.328C42.3465 33.328 43.6905 33.904 44.8425 35.056C45.9945 36.144 46.5705 37.52 46.5705 39.184C46.5705 40.784 45.9945 42.16 44.8425 43.312C43.6905 44.464 42.3465 45.04 40.8105 45.04Z" fill="#FEFEFE"/>
<path d="M22.8105 45.04C20.5705 45.104 18.7465 44.368 17.3385 42.832C15.9945 41.232 15.3225 39.152 15.3225 36.592C15.3225 33.456 16.3785 30.192 18.4905 26.8C20.6025 23.408 23.2905 20.688 26.5545 18.64L29.4345 21.904C26.6185 23.888 24.4745 26.064 23.0025 28.432C21.5305 30.736 20.7305 32.56 20.6025 33.904C21.3705 33.52 22.1065 33.328 22.8105 33.328C24.3465 33.328 25.6905 33.904 26.8425 35.056C27.9945 36.144 28.5705 37.52 28.5705 39.184C28.5705 40.784 27.9945 42.16 26.8425 43.312C25.6905 44.464 24.3465 45.04 22.8105 45.04Z" fill="#FEFEFE"/>
</svg>
