<svg width="56" height="56" viewBox="0 0 56 56" fill="none" xmlns="http://www.w3.org/2000/svg">
<path d="M22.1014 38.4237C21.4149 39.1041 21.41 40.2121 22.0903 40.8986C22.7707 41.585 23.8787 41.59 24.5652 40.9096L28.7529 36.7591C30.3302 35.1959 31.6193 33.9183 32.5335 32.7799C33.4842 31.5962 34.1723 30.3946 34.3562 28.9524C34.4368 28.32 34.4368 27.68 34.3562 27.0476C34.1723 25.6054 33.4842 24.4038 32.5335 23.2201C31.6193 22.0817 30.3302 20.8041 28.7529 19.2409L24.5652 15.0904C23.8787 14.41 22.7707 14.415 22.0903 15.1014C21.41 15.7879 21.4149 16.8959 22.1014 17.5763L26.215 21.6533C27.8845 23.308 29.0297 24.4468 29.8046 25.4116C30.5573 26.3489 30.8155 26.951 30.8843 27.4902C30.9274 27.8287 30.9274 28.1713 30.8843 28.5098C30.8155 29.049 30.5573 29.6511 29.8046 30.5884C29.0297 31.5533 27.8845 32.692 26.215 34.3467L22.1014 38.4237Z" fill="#FEFEFE"/>
</svg>
