<svg width="16" height="16" viewBox="0 0 16 16" fill="none" xmlns="http://www.w3.org/2000/svg">
<g clip-path="url(#clip0_59_16)">
<path d="M10.7762 2.85037C9.90235 0.160959 6.09755 0.160959 5.2237 2.85037C4.96678 3.64109 4.22993 4.17645 3.39851 4.17645C0.570697 4.17645 -0.605054 7.79504 1.6827 9.45719C2.35533 9.94588 2.63678 10.8121 2.37986 11.6028C1.50602 14.2922 4.58417 16.5287 6.87192 14.8665C7.54455 14.3778 8.45535 14.3778 9.12798 14.8665C11.4157 16.5287 14.4939 14.2922 13.62 11.6028C13.3631 10.8121 13.6446 9.94588 14.3172 9.45719C16.605 7.79504 15.4292 4.17645 12.6014 4.17645C11.77 4.17645 11.0331 3.64109 10.7762 2.85037Z" fill="#FC7B5E"/>
</g>
<defs>
<clipPath id="clip0_59_16">
<rect width="16" height="16" fill="white"/>
</clipPath>
</defs>
</svg>
