<svg width="18" height="18" viewBox="0 0 18 18" fill="none" xmlns="http://www.w3.org/2000/svg">
<path fill-rule="evenodd" clip-rule="evenodd" d="M9 0.9375C7.03249 0.9375 5.4375 2.53249 5.4375 4.5C5.4375 6.46751 7.03249 8.0625 9 8.0625C10.9675 8.0625 12.5625 6.46751 12.5625 4.5C12.5625 2.53249 10.9675 0.9375 9 0.9375ZM6.5625 4.5C6.5625 3.15381 7.65381 2.0625 9 2.0625C10.3462 2.0625 11.4375 3.15381 11.4375 4.5C11.4375 5.84619 10.3462 6.9375 9 6.9375C7.65381 6.9375 6.5625 5.84619 6.5625 4.5Z" fill="#2D264B"/>
<path fill-rule="evenodd" clip-rule="evenodd" d="M6.75 9.1875C4.78249 9.1875 3.1875 10.7825 3.1875 12.75C3.1875 14.7175 4.78249 16.3125 6.75 16.3125H11.25C13.2175 16.3125 14.8125 14.7175 14.8125 12.75C14.8125 10.7825 13.2175 9.1875 11.25 9.1875H6.75ZM4.3125 12.75C4.3125 11.4038 5.40381 10.3125 6.75 10.3125H11.25C12.5962 10.3125 13.6875 11.4038 13.6875 12.75C13.6875 14.0962 12.5962 15.1875 11.25 15.1875H6.75C5.40381 15.1875 4.3125 14.0962 4.3125 12.75Z" fill="#2D264B"/>
</svg>
