<svg width="29" height="28" viewBox="0 0 29 28" fill="none" xmlns="http://www.w3.org/2000/svg">
<path fill-rule="evenodd" clip-rule="evenodd" d="M14.5 1.45837C11.4394 1.45837 8.95833 3.93946 8.95833 7.00004C8.95833 10.0606 11.4394 12.5417 14.5 12.5417C17.5606 12.5417 20.0417 10.0606 20.0417 7.00004C20.0417 3.93946 17.5606 1.45837 14.5 1.45837ZM10.7083 7.00004C10.7083 4.90596 12.4059 3.20837 14.5 3.20837C16.5941 3.20837 18.2917 4.90596 18.2917 7.00004C18.2917 9.09412 16.5941 10.7917 14.5 10.7917C12.4059 10.7917 10.7083 9.09412 10.7083 7.00004Z" fill="#FB5A36"/>
<path fill-rule="evenodd" clip-rule="evenodd" d="M11 14.2917C7.93942 14.2917 5.45833 16.7728 5.45833 19.8334C5.45833 22.894 7.93942 25.375 11 25.375H18C21.0606 25.375 23.5417 22.894 23.5417 19.8334C23.5417 16.7728 21.0606 14.2917 18 14.2917H11ZM7.20833 19.8334C7.20833 17.7393 8.90592 16.0417 11 16.0417H18C20.0941 16.0417 21.7917 17.7393 21.7917 19.8334C21.7917 21.9275 20.0941 23.625 18 23.625H11C8.90592 23.625 7.20833 21.9275 7.20833 19.8334Z" fill="#FB5A36"/>
</svg>
