<svg width="29" height="28" viewBox="0 0 29 28" fill="none" xmlns="http://www.w3.org/2000/svg">
<path d="M15.25 9.33337C15.25 8.91916 14.9142 8.58337 14.5 8.58337C14.0858 8.58337 13.75 8.91916 13.75 9.33337L15.25 9.33337ZM18 15.9167C18.4142 15.9167 18.75 15.5809 18.75 15.1667C18.75 14.7525 18.4142 14.4167 18 14.4167V15.9167ZM3.53146 3.20606C3.20801 3.46481 3.15557 3.93678 3.41433 4.26023C3.67309 4.58367 4.14505 4.63612 4.4685 4.37736L3.53146 3.20606ZM7.38517 2.04403C7.70861 1.78527 7.76105 1.3133 7.5023 0.989853C7.24354 0.666406 6.77157 0.613965 6.44812 0.872722L7.38517 2.04403ZM24.5315 4.37736C24.8549 4.63612 25.3269 4.58367 25.5856 4.26023C25.8444 3.93678 25.7919 3.46481 25.4685 3.20606L24.5315 4.37736ZM22.5518 0.872722C22.2284 0.613965 21.7564 0.666406 21.4977 0.989853C21.2389 1.3133 21.2913 1.78527 21.6148 2.04403L22.5518 0.872722ZM13.75 9.33337L13.75 13.4167L15.25 13.4167L15.25 9.33337L13.75 9.33337ZM25.4166 14C25.4166 20.0291 20.5291 24.9167 14.5 24.9167V26.4167C21.3575 26.4167 26.9166 20.8576 26.9166 14H25.4166ZM14.5 24.9167C8.47087 24.9167 3.58331 20.0291 3.58331 14H2.08331C2.08331 20.8576 7.64244 26.4167 14.5 26.4167V24.9167ZM3.58331 14C3.58331 7.97093 8.47087 3.08337 14.5 3.08337V1.58337C7.64244 1.58337 2.08331 7.1425 2.08331 14H3.58331ZM14.5 3.08337C20.5291 3.08337 25.4166 7.97093 25.4166 14H26.9166C26.9166 7.1425 21.3575 1.58337 14.5 1.58337V3.08337ZM4.4685 4.37736L7.38517 2.04403L6.44812 0.872722L3.53146 3.20606L4.4685 4.37736ZM25.4685 3.20606L22.5518 0.872722L21.6148 2.04403L24.5315 4.37736L25.4685 3.20606ZM16.25 15.9167H18V14.4167H16.25V15.9167ZM13.75 13.4167C13.75 14.7974 14.8693 15.9167 16.25 15.9167V14.4167C15.6977 14.4167 15.25 13.969 15.25 13.4167L13.75 13.4167Z" fill="#FB5A36"/>
</svg>
