<svg width="29" height="28" viewBox="0 0 29 28" fill="none" xmlns="http://www.w3.org/2000/svg">
<path fill-rule="evenodd" clip-rule="evenodd" d="M11.2917 4.66663C13.7079 4.66663 15.6667 6.62538 15.6667 9.04163C15.6667 11.4579 13.7079 13.4166 11.2917 13.4166C8.87542 13.4166 6.91666 11.4579 6.91666 9.04163C6.91666 6.62538 8.87542 4.66663 11.2917 4.66663ZM13.9167 9.04163C13.9167 7.59188 12.7414 6.41663 11.2917 6.41663C9.84192 6.41663 8.66666 7.59188 8.66666 9.04163C8.66666 10.4914 9.84192 11.6666 11.2917 11.6666C12.7414 11.6666 13.9167 10.4914 13.9167 9.04163Z" fill="#FB5A36"/>
<path fill-rule="evenodd" clip-rule="evenodd" d="M14.7917 15.1666C17.2079 15.1666 19.1667 17.1254 19.1667 19.5416C19.1667 21.9579 17.2079 23.9166 14.7917 23.9166H7.79166C5.37542 23.9166 3.41666 21.9579 3.41666 19.5416C3.41666 17.1254 5.37542 15.1666 7.79166 15.1666H14.7917ZM17.4167 19.5416C17.4167 18.0919 16.2414 16.9166 14.7917 16.9166H7.79166C6.34192 16.9166 5.16666 18.0919 5.16666 19.5416C5.16666 20.9914 6.34192 22.1666 7.79166 22.1666H14.7917C16.2414 22.1666 17.4167 20.9914 17.4167 19.5416Z" fill="#FB5A36"/>
<path d="M16.2475 12.1201C16.4315 11.8244 16.7768 11.6666 17.125 11.6666C18.5747 11.6666 19.75 10.4914 19.75 9.04163C19.75 7.59188 18.5747 6.41663 17.125 6.41663C16.7768 6.41663 16.4315 6.25881 16.2475 5.9632C16.2394 5.95012 16.2312 5.93708 16.2229 5.92408C15.9166 5.44048 16.0718 4.75576 16.6408 4.69311C16.7998 4.67561 16.9614 4.66663 17.125 4.66663C19.5412 4.66663 21.5 6.62538 21.5 9.04163C21.5 11.4579 19.5412 13.4166 17.125 13.4166C16.9614 13.4166 16.7998 13.4076 16.6408 13.3901C16.0718 13.3275 15.9166 12.6428 16.2229 12.1592C16.2312 12.1462 16.2394 12.1331 16.2475 12.1201Z" fill="#FB5A36"/>
<path d="M19.7987 21.3696C19.9311 21.1487 20.1649 21 20.4225 21H20.625C22.0747 21 23.25 19.8247 23.25 18.375C23.25 16.9252 22.0747 15.75 20.625 15.75H20.4225C20.1649 15.75 19.9311 15.6012 19.7987 15.3803C19.4754 14.8409 19.8262 14 20.455 14H20.625C23.0412 14 25 15.9587 25 18.375C25 20.7912 23.0412 22.75 20.625 22.75H20.455C19.8262 22.75 19.4754 21.909 19.7987 21.3696Z" fill="#FB5A36"/>
</svg>
