<svg width="24" height="24" viewBox="0 0 24 24" fill="none" xmlns="http://www.w3.org/2000/svg">
<path fill-rule="evenodd" clip-rule="evenodd" d="M10.6871 0.00366003C10.942 0.00326094 11.2163 0.00338404 11.5123 0.00351689L12.0002 0.00366003C15.9086 0.00366003 16.3718 0.01769 17.9152 0.0878395C19.3424 0.153109 20.117 0.391618 20.633 0.592001C21.3161 0.85735 21.8031 1.17455 22.3152 1.68694C22.8275 2.19934 23.1446 2.68734 23.4106 3.37053C23.6109 3.88598 23.8497 4.66068 23.9147 6.08807C23.9848 7.63136 24.0001 8.09496 24.0001 12.002C24.0001 15.909 23.9848 16.3726 23.9147 17.9159C23.8494 19.3433 23.6109 20.118 23.4106 20.6334C23.1453 21.3166 22.8275 21.8031 22.3152 22.3152C21.8028 22.8276 21.3164 23.1448 20.633 23.4101C20.1176 23.6114 19.3424 23.8493 17.9152 23.9146C16.3721 23.9848 15.9086 24 12.0002 24C8.09155 24 7.62832 23.9848 6.08522 23.9146C4.65801 23.8487 3.88341 23.6102 3.36712 23.4098C2.68401 23.1445 2.19607 22.8273 1.68374 22.3149C1.17141 21.8025 0.854252 21.3157 0.588328 20.6322C0.387969 20.1168 0.149186 19.3421 0.0842299 17.9147C0.0140892 16.3714 6.10352e-05 15.9078 6.10352e-05 11.9983C6.10352e-05 8.08886 0.0140892 7.6277 0.0842299 6.08441C0.149491 4.65702 0.387969 3.88232 0.588328 3.36626C0.853642 2.68307 1.17141 2.19507 1.68374 1.68268C2.19607 1.17028 2.68401 0.85308 3.36712 0.587122C3.88311 0.385823 4.65801 0.147924 6.08522 0.0823496C7.43558 0.0213499 7.95889 0.00305001 10.6871 0V0.00366003ZM19.8141 2.43469C18.8443 2.43469 18.0575 3.22067 18.0575 4.19087C18.0575 5.16077 18.8443 5.94766 19.8141 5.94766C20.7839 5.94766 21.5707 5.16077 21.5707 4.19087C21.5707 3.22098 20.7839 2.43408 19.8141 2.43408V2.43469ZM4.48324 12.0055C4.48324 7.85367 7.84891 4.48747 12.0002 4.4873C16.1516 4.4873 19.5165 7.85357 19.5165 12.0055C19.5165 16.1574 16.1519 19.5222 12.0005 19.5222C7.84907 19.5222 4.48324 16.1574 4.48324 12.0055Z" fill="#FEFEFE"/>
</svg>
