<svg width="24" height="24" viewBox="0 0 24 24" fill="none" xmlns="http://www.w3.org/2000/svg">
<path d="M11.6534 6.38438L11.7054 7.42244L10.8383 7.29533C7.68221 6.80808 4.92494 5.15564 2.58386 2.3804L1.43933 1.00337L1.14453 2.02025C0.52024 4.28706 0.91909 6.68097 2.21969 8.29103C2.91334 9.1808 2.75727 9.30791 1.56072 8.77829C1.14453 8.60881 0.78036 8.4817 0.745677 8.54525C0.624288 8.69355 1.04048 10.6214 1.36996 11.384C1.82084 12.4433 2.73993 13.4814 3.74573 14.0957L4.59545 14.583L3.58965 14.6042C2.61854 14.6042 2.58386 14.6254 2.68791 15.0702C3.03473 16.4473 4.4047 17.909 5.93073 18.5446L7.00589 18.9895L6.06946 19.6674C4.68216 20.6419 3.05207 21.1927 1.42199 21.2351C0.641629 21.2563 0 21.341 0 21.4046C0 21.6164 2.11564 22.8028 3.34688 23.2689C7.04058 24.6459 11.4279 24.0527 14.7228 21.7012C17.0639 20.0276 19.4049 16.7015 20.4974 13.4814C21.087 11.7654 21.6767 8.62999 21.6767 7.12585C21.6767 6.15134 21.7287 6.02423 22.6998 4.85905C23.2721 4.18113 23.8096 3.43965 23.9137 3.2278C24.0871 2.82529 24.0698 2.82529 23.1853 3.18543C21.7113 3.82098 21.5032 3.73624 22.2316 2.78292C22.7692 2.10499 23.4108 0.876262 23.4108 0.516116C23.4108 0.452561 23.1507 0.558486 22.8559 0.749151C22.5437 0.961002 21.8501 1.27878 21.3298 1.46944L20.3934 1.82959L19.5437 1.13048C19.0755 0.749151 18.4165 0.32545 18.0697 0.19834C17.1853 -0.098251 15.8326 -0.0558808 15.0349 0.28308C12.8673 1.23641 11.4973 3.69387 11.6534 6.38438Z" fill="#FEFEFE"/>
</svg>
